<?xml version="1.0" standalone="no"?>
<!DOCTYPE svg PUBLIC "-//W3C//DTD SVG 1.1//EN" "http://www.w3.org/Graphics/SVG/1.1/DTD/svg11.dtd" >
<svg xmlns="http://www.w3.org/2000/svg" xmlns:xlink="http://www.w3.org/1999/xlink" version="1.1" viewBox="-10 0 266 256">
  <g transform="matrix(1 0 0 -1 0 204)">
   <path fill="currentColor"
d="M149 208q24 -5 32 -17q2 -4 0 -7q-3 -2 -6 1l-12 6q-6 1 -3 5q3 1 -12 10q-6 3 1 2zM200 190q1 5 7 3q11 -3 17 -6q2 -3 -3 -3q-12 1 -27 -4q-22 -8 -30 -15q-4 -3 -5 -3q-1 1 2 4q11 9 4 7q-5 -2 -16 -5q-5 -2 -7 -2q-10 -3 -22 0q-3 1 0 2q8 -2 64 14q11 2 16 8z
M198 169q4 -1 8 -4q3 -3 -1 -6q-6 -2 -9 -5q-9 -11 -26 -26q-3 -2 -4 -3q19 4 40 11q-1 3 2 5q1 2 3 1q6 -5 12 -7v-1q3 -1 2 -2q-1 -4 -5 -2q-8 1 -20 -2q-18 -5 -39 -15q-8 -3 -4 0q11 5 17 8q2 1 1 2q-20 -5 -43 -13q-1 -1 -2 -1q-8 -2 -15 -1q-4 0 1 2l6 2q19 6 28 9
q-5 0 -7 8q-2 5 2 10q1 4 5 10l2 2q2 3 2 -2q-3 -9 -2 -12q1 -2 6 2q7 7 2 -2q-8 -10 -7 -15q23 12 38 34q0 1 1 2q5 6 3 9q-2 1 3 2zM149 105q3 2 0 -2q-4 -5 -2 -6q1 -6 0 -5q-7 0 -8 -11q-16 -65 -51 -106q-5 -4 -2 0q40 57 49 107q1 8 0 11v1q-5 3 14 11zM191 103
q5 -2 6 -3q2 -3 0 -4q-7 -3 -13 -9q-17 -21 -39 -30q-3 -2 0 1q25 16 37 35q0 1 2 3q1 1 2 4q1 4 5 3zM191 70l6 -2q8 -2 11 -3q2 -2 1 -5q-12 -3 -16 -7q-31 -25 -50 -36q-4 0 -2 2q31 23 43 34q10 9 5 14q-3 0 -2 2q1 1 4 1zM200 29q2 0 6 -1h8q0 -4 -3 -7q-6 -1 -13 -7
q-35 -24 -59 -34q-5 0 -1 2q14 7 42 26l2 2q9 7 11 11q0 1 2 4q2 5 5 4zM67 181q-2 2 2 1l16 -8q4 -2 7 -3q3 -2 3 -3q1 -1 -1 -2q-1 -4 -9 -2h-3q-3 2 -5 1q-3 0 -1 2q2 3 -1 6q-2 1 -6 4zM76 103q4 0 10 -1q3 0 3 -2q1 -1 -6 -3q-6 -3 -13 -10q-3 -3 -1 2v2q0 1 -1 1
q-2 0 -5 -1q-2 0 0 2q10 4 10 8q1 2 3 2zM89 74q-1 -4 -4 -3l-6 -3q-2 -3 -4 -4q-2 -2 -2 1q0 1 -3 0q-2 -2 -8 -2q-2 -1 -1 1q3 1 9 4q2 1 3 2q3 2 5 3q4 3 11 3q1 0 0 -2zM88 41q5 -2 11 -4q1 -1 0 -3q-1 -1 -1 -2l-1 -1q-3 0 -4 -2q-4 -7 -5 -11q2 -1 4 1q2 -1 5 1
q2 0 2 -2q0 -3 -2 -3q-2 -1 -5 -2h-4q-7 -2 -11 -3q-5 -2 -7 -1v2q6 0 11 5q5 9 6 15q0 3 -1 3q0 1 -3 1q-9 -6 -15 -7q-3 -1 -1 1q7 4 18 9q2 3 3 3zM57 25h1q3 -6 5 -16q1 -8 5 -9q2 -2 2 -3q-2 -1 -3 -1q-2 1 -4 3q-3 1 -4 2q-2 1 2 5q-2 12 -4 16v3zM109 132q0 -3 -5 -2
q-8 0 -13 -3q-3 -1 -4 -1t1 2q4 3 -2 2q-43 -9 -62 -15q-6 -2 -11 1q-4 1 1 2q2 0 12 2q12 3 22 6q31 7 46 9q3 2 4 2h2q2 0 4 -1q0 -1 2 -1q1 -1 2 -1q2 -1 1 -2z" />
  </g>

</svg>
